# xmcd CD database file
#
# Track frame offsets:
#	150
#	17774
#	33462
#	48120
#	66764
#	85288
#	98923
#	109890
#	127818
#	145452
#	170434
#	177571
#	206173
#
# Disc length: 2979 seconds
#
# Revision: 1
# Processed by: cddbd v1.4PL0 Copyright (c) Steve Scherf et al.
# Submitted via: CDex 1.40Beta9
#
DISCID=b60ba10d
DTITLE=Blue Tales - Peace Love and - ope
DYEAR=2003
DGENRE=Blues
TTITLE0=Big brother
TTITLE1=El Capitan
TTITLE2=I'll be the one for you
TTITLE3=365503-1
TTITLE4=No mercy
TTITLE5=Rock'n Roll Bus
TTITLE6=(When you) Touch me
TTITLE7=Midnite Rag
TTITLE8=Put on the helmet
TTITLE9=Get with it
TTITLE10=Oh well
TTITLE11=Too bad
TTITLE12=Illusions for sale
EXTD=YEAR: 2003 ID3G: 0
EXTT0=
EXTT1=
EXTT2=
EXTT3=
EXTT4=
EXTT5=
EXTT6=
EXTT7=
EXTT8=
EXTT9=
EXTT10=
EXTT11=
EXTT12=
PLAYORDER=
